<svg xmlns="http://www.w3.org/2000/svg" width="336" viewBox="0 0 252 144" height="192" version="1.0"><defs><clipPath id="a"><path d="M28 37h196v71H28Zm0 0"/></clipPath><clipPath id="b"><path d="M133-42 243 68 124 186 15 76Zm0 0"/></clipPath><clipPath id="c"><path d="M133-42 243 68 124 186 15 76Zm0 0"/></clipPath></defs><g clip-path="url(#a)"><g clip-path="url(#b)"><g clip-path="url(#c)"><path fill="#ee54aa" d="M171 61H91c0-2-2-4-4-4h-2c-2 0-4 2-4 4l-48-1c-3 0-5 2-5 5v6c0 2 2 4 5 4h11l1 1v13l2 2h3v8h-3l-2 1v6l2 1h9v-4h8v4h9l2-1v-6l-2-1h-3v-8h3l2-2V76l1-1h5c0 2 2 3 4 3h2c2 0 4-1 4-3l80-1c3 0 5 2 6 3 3 12 12 21 22 21 13 0 24-14 24-30 0-17-11-31-24-31-10 0-19 9-22 21-1 2-3 3-6 3Zm17-3a12 12 0 1 1 20 7l-2 3 2 2c2 2 3 5 3 7a12 12 0 1 1-21-7l3-2-3-3-2-7Zm0 0"/></g></g></g></svg>